# xmcd
#
# Track frame offsets:
#	150
#	14487
#	28627
#	46975
#	61380
#	80760
#	96072
#	113454
#	141077
#	161270
#	173955
#	195170
#	216860
#	243713
#	258565
#	273910
#	288395
#	318110
#
# Disc length: 4347 seconds
#
# Revision: 0
# Processed by: cddbd v1.5.2PL0 Copyright (c) Steve Scherf et al.
# Submitted via: EZCDAudioConverter 1.2.3.1
#
DISCID=f610f912
DTITLE=Betsy Pecanins - Recuento
DYEAR=1900
DGENRE=Blues
TTITLE0=Continuo sufrimiento
TTITLE1=No me amenaces
TTITLE2=La chancla
TTITLE3=La tequilera
TTITLE4=A Day in the Life
TTITLE5=Get Back
TTITLE6=You're Really Got a Hold Me
TTITLE7=Hey Jude
TTITLE8=Robando luz al sol
TTITLE9=Blues de la nube
TTITLE10=Lo profundo de tu boca
TTITLE11=Nunca sabrás quién soy
TTITLE12=Necesito despertar
TTITLE13=Caricia urgente
TTITLE14=Acaso
TTITLE15=Por un amor
TTITLE16=I'm a Woman
TTITLE17=You Shook Me
EXTD=
EXTT0=
EXTT1=
EXTT2=
EXTT3=
EXTT4=
EXTT5=
EXTT6=
EXTT7=
EXTT8=
EXTT9=
EXTT10=
EXTT11=
EXTT12=
EXTT13=
EXTT14=
EXTT15=
EXTT16=
EXTT17=
PLAYORDER=
